--------------------------------------------

Syrup.2013.HDRip.XVID.AC3.HQ.Hive-CM8

Source: 720p web-dl CTRLHD thx

Encode:

quality was nice
added brightness,sharpness,rgb and denoise
got very nice
enjoy

Video: 720x304 @bitrate 1600 2pass
Audio: English AC3 5.1 @384
Sample: yes included
 
http://www.imdb.com/title/tt0762138/

General
Complete name: Syrup.2013.HDRip.XVID.AC3.HQ.Hive-CM8.avi
Format: AVI
Format/Info: Audio Video Interleave
File size: 1.25 GiB
Duration: 1h 29mn
Overall bit rate: 1 993 Kbps
Writing application: Nandub v1.0rc2
Writing library: Nandub build 1853/release

Video
ID: 0
Format: MPEG-4 Visual
Format profile: Advanced Simple@L5
Format settings, BVOP: 2
Format settings, QPel: Yes
Format settings, GMC: No warppoints
Format settings, Matrix: Default (H.263)
Muxing mode: Packed bitstream
Codec ID: XVID
Codec ID/Hint: XviD
Duration: 1h 29mn
Bit rate: 1 600 Kbps
Width: 720 pixels
Height: 304 pixels
Display aspect ratio: 2.35:1
Frame rate: 23.976 fps
Color space: YUV
Chroma subsampling: 4:2:0
Bit depth: 8 bits
Scan type: Progressive
Compression mode: Lossy
Bits/(Pixel*Frame): 0.305
Stream size: 1.01 GiB (80%)
Writing library: XviD 1.2.1 (UTC 2008-12-04)

Audio
ID: 1
Format: AC-3
Format/Info: Audio Coding 3
Mode extension: CM (complete main)
Format settings, Endianness: Big
Codec ID: 2000
Duration: 1h 29mn
Bit rate mode: Constant
Bit rate: 384 Kbps
Channel(s): 6 channels
Channel positions: Front: L C R, Side: L R, LFE
Sampling rate: 48.0 KHz
Bit depth: 16 bits
Compression mode: Lossy
Stream size: 247 MiB (19%)
Alignment: Split accross interleaves
Interleave, duration: 42 ms (1.00 video frame)
Interleave, preload duration: 500 ms

Plot:

A slacker hatches a million-dollar idea. But, in order to see it through, he has to learn to trust his attractive corporate counterpart. Based on Max Barry's novel

Cast:

Amber Heard ... 6
Brittany Snow ... Three
Kellan Lutz ... Sneaky Pete
Shiloh Fernandez ... Scat 

--------------------------------------------